# xmcd
# 
# Track frame offsets:
#     150
#     25180
#     65152
#     102992
#     135502
#     167322
#     187047
#     227405
#     242892
#     262745
#     289507
# 
# Disc length: 4147
# 
# Revision: 9
# Processed by: cddbd v1.5.2PL0 Copyright (c) Steve Scherf et al.
# Submitted via: fre:ac v1.0.27
# 
DISCID=8d10310b
DTITLE=Tomasz Stanko - Suspended Night
DYEAR=2004
DGENRE=Jazz
TTITLE0=Song For Sarah
TTITLE1=Suspended Variation I
TTITLE2=Suspended Variation II
TTITLE3=Suspended Variation III
TTITLE4=Suspended Variation IV
TTITLE5=Suspended Variation V
TTITLE6=Suspended Variation VI
TTITLE7=Suspended Variation VII
TTITLE8=Suspended Variation VIII
TTITLE9=Suspended Variation IX
TTITLE10=Suspended Variation X
EXTD=Tomasz Stanko: trumpet, Marcin Wasilewski: piano, Slawomir Kurkiewicz: double-bass, Michal Miskiewicz: drums
EXTT0=
EXTT1=
EXTT2=
EXTT3=
EXTT4=
EXTT5=
EXTT6=
EXTT7=
EXTT8=
EXTT9=
EXTT10=
PLAYORDER=
